#!OML:ASF X:\für Bonn\!DataBase\2005_08_12_Daniel\c3d\Daniel.ASF
:FULLY-SPECIFIED
:DEGREES
351
root 19.2205 1.19327 0.469107 -1720.01 258.538 164.708
lowerback 28.6903 -1.87424 -0.501333
upperback 5.4083 -3.66592 -5.11742
thorax -10.0958 -2.03421 -4.12449
lowerneck -10.5428 2.83966 -2.52164
upperneck 3.35852 4.0683 -0.0525079
head 2.8695 1.95291 0.652902
rclavicle -1.11319e-014 -4.00303e-014
rhumerus -381.632 28.7648 295.904
rradius 107.194
rwrist -4.92999
rhand -39.1845 749.742
rfingers 7.12502
rthumb -12.1816 720.117
lclavicle -1.11319e-014 -4.00303e-014
lhumerus -542.308 190.764 -500.58
lradius 115.972
lwrist 19.7409
lhand -33.3658 -737.705
lfingers 7.12502
lthumb -6.56738 12.1733
rfemur -526.685 -190.707 558.519
rtibia 35.6518
rfoot 4.12322 -19.9745
rtoes 26.4589
lfemur -9.41957 738.894 -22.5145
ltibia 86.0998
lfoot 133.449 567.341
ltoes 28.5352
352
root 19.2552 1.19282 0.474836 -1721 258.57 165.736
lowerback 28.6886 -1.82643 -0.423906
upperback 5.40138 -3.58028 -5.12346
thorax -10.1008 -1.99587 -4.2087
lowerneck -10.463 2.7965 -2.57669
upperneck 3.31338 4.01185 0.016614
head 2.83732 1.92811 0.679356
rclavicle 4.25399e-014 -6.08778e-016
rhumerus -383.311 29.1925 294.33
rradius 106.141
rwrist -4.65123
rhand -38.8393 749.521
rfingers 7.12502
rthumb -11.8487 719.876
lclavicle 4.25399e-014 -6.08778e-016
lhumerus -543.814 191.769 -499.454
lradius 115.103
lwrist 18.8431
lhand -32.8876 -737.465
lfingers 7.12502
lthumb -6.10569 12.4272
rfemur -525.571 -191.941 559.285
rtibia 33.9494
rfoot 2.04454 -20.9172
rtoes 26.2657
lfemur -9.40689 739.104 -22.2629
ltibia 86.0967
lfoot 135.059 566.991
ltoes 28.5959
353
root 19.2788 1.19099 0.480922 -1721.94 258.61 166.701
lowerback 28.7187 -1.78838 -0.331964
upperback 5.38538 -3.50426 -5.12871
thorax -10.1336 -1.96254 -4.29662
lowerneck -10.3969 2.75163 -2.65691
upperneck 3.27541 3.95394 0.139588
head 2.80882 1.90434 0.727994
rclavicle 1.48691e-013 -1.68333e-013
rhumerus -385.032 29.51 292.68
rradius 104.996
rwrist -4.29826
rhand -38.4423 749.277
rfingers 7.12502
rthumb -11.4659 719.611
lclavicle 1.48691e-013 -1.68333e-013
lhumerus -545.348 192.704 -498.276
lradius 114.153
lwrist 18.0549
lhand -32.36 -737.097
lfingers 7.12502
lthumb -5.59635 12.8091
rfemur -524.565 -193.137 560.051
rtibia 32.5122
rfoot -0.499583 -21.678
rtoes 26.5217
lfemur -9.39745 739.292 -22.0379
ltibia 86.0204
lfoot 136.716 566.629
ltoes 28.5713
354
root 19.2961 1.18997 0.485285 -1722.54 258.61 167.32
lowerback 28.7287 -1.76895 -0.284222
upperback 5.38433 -3.46676 -5.14434
thorax -10.1404 -1.94673 -4.35637
lowerneck -10.3625 2.71758 -2.73477
upperneck 3.26034 3.91254 0.237044
head 2.79456 1.88721 0.769917
rclavicle -2.46493e-014 2.74944e-014
rhumerus -386.747 29.7799 291.031
rradius 103.825
rwrist -3.95641
rhand -38.021 748.989
rfingers 7.12502
rthumb -11.0595 719.301
lclavicle -2.46493e-014 2.74944e-014
lhumerus -546.909 193.557 -497.03
lradius 113.117
lwrist 17.3904
lhand -31.9097 -736.649
lfingers 7.12502
lthumb -5.16151 13.2683
rfemur -523.661 -194.305 560.791
rtibia 31.3455
rfoot -3.61625 -22.3548
rtoes 27.6201
lfemur -9.40841 739.418 -21.9081
ltibia 85.8713
lfoot 138.189 566.335
ltoes 28.6996
355
root 19.3122 1.19174 0.487047 -1722.69 258.608 167.488
lowerback 28.6928 -1.76139 -0.25279
upperback 5.39783 -3.4465 -5.15165
thorax -10.1074 -1.9382 -4.39103
lowerneck -10.3337 2.66935 -2.7898
upperneck 3.22855 3.85078 0.305055
head 2.77713 1.85923 0.797125
rclavicle -4.41302e-014 5.87098e-014
rhumerus -388.464 29.8956 289.362
rradius 102.593
rwrist -3.58177
rhand -37.5079 748.669
rfingers 7.12502
rthumb -10.5646 718.955
lclavicle -4.41302e-014 5.87098e-014
lhumerus -548.528 194.293 -495.646
lradius 112.065
lwrist 16.8064
lhand -31.3986 -736.223
lfingers 7.12502
lthumb -4.66807 13.7054
rfemur -522.904 -195.276 561.446
rtibia 30.4265
rfoot -6.29585 -22.8612
rtoes 28.6635
lfemur -9.43357 739.454 -21.8266
ltibia 85.6529
lfoot 139.22 566.126
ltoes 29.2272
356
root 19.3282 1.19501 0.486599 -1722.43 258.616 167.25
lowerback 28.621 -1.7807 -0.207615
upperback 5.41603 -3.45606 -5.16304
thorax -10.0544 -1.94408 -4.42758
lowerneck -10.3338 2.61793 -2.86574
upperneck 3.22566 3.78653 0.417054
head 2.77404 1.83122 0.843248
rclavicle -6.71892e-014 1.4246e-013
rhumerus -390.162 29.8972 287.716
rradius 101.324
rwrist -3.15529
rhand -36.921 748.301
rfingers 7.12502
rthumb -9.99842 718.559
lclavicle -6.71892e-014 1.4246e-013
lhumerus -550.125 194.974 -494.237
lradius 110.931
lwrist 16.3009
lhand -31.029 -735.79
lfingers 7.12502
lthumb -4.31116 14.1461
rfemur -522.288 -196.051 562.021
rtibia 29.7222
rfoot -8.6225 -23.3185
rtoes 29.5837
lfemur -9.47426 739.416 -21.7678
ltibia 85.3818
lfoot 140.092 565.999
ltoes 29.9616
357
root 19.3435 1.19891 0.485401 -1721.96 258.643 166.821
lowerback 28.5238 -1.81621 -0.165741
upperback 5.43357 -3.48326 -5.14708
thorax -9.98888 -1.95718 -4.42463
lowerneck -10.2752 2.57045 -2.99691
upperneck 3.1585 3.73167 0.522191
head 2.73711 1.80723 0.894942
rclavicle 6.52014e-014 -6.53815e-014
rhumerus -391.812 29.82 286.125
rradius 100.03
rwrist -2.74184
rhand -36.1833 747.875
rfingers 7.12502
rthumb -9.28666 718.099
lclavicle 6.52014e-014 -6.53815e-014
lhumerus -551.778 195.577 -492.754
lradius 109.708
lwrist 15.8335
lhand -30.7026 -735.457
lfingers 7.12502
lthumb -3.99596 14.4857
rfemur -521.81 -196.706 562.556
rtibia 29.215
rfoot -10.5288 -23.827
rtoes 30.4566
lfemur -9.5216 739.333 -21.7337
ltibia 85.0763
lfoot 140.878 565.961
ltoes 30.5243
358
root 19.3563 1.20196 0.484044 -1721.36 258.665 166.259
lowerback 28.4393 -1.85233 -0.119189
upperback 5.4472 -3.51109 -5.13715
thorax -9.935 -1.97084 -4.43108
lowerneck -10.2089 2.52051 -3.09418
upperneck 3.09571 3.67028 0.608483
head 2.7015 1.77979 0.934226
rclavicle 4.29375e-014 -7.36373e-014
rhumerus -393.423 29.6121 284.554
rradius 98.6965
rwrist -2.31474
rhand -35.3625 747.383
rfingers 7.12502
rthumb -8.49458 717.574
lclavicle 4.29375e-014 -7.36373e-014
lhumerus -553.421 196.132 -491.23
lradius 108.445
lwrist 15.4123
lhand -30.4121 -735.145
lfingers 7.12502
lthumb -3.71541 14.8023
rfemur -521.462 -197.147 562.952
rtibia 28.8754
rfoot -11.9847 -24.2994
rtoes 31.1731
lfemur -9.53136 739.2 -21.7312
ltibia 84.7345
lfoot 141.457 565.981
ltoes 30.8239
